<mxfile modified="2023-03-30T05:33:45.182Z" host="app.diagrams.net" agent="Mozilla/5.0 (Windows NT 10.0; Win64; x64) AppleWebKit/537.36 (KHTML, like Gecko) Chrome/111.0.0.0 Safari/537.36" etag="JW56OFXZVn8qeVQWok9J" version="21.1.2" type="github">
  <diagram id="Ht1M8jgEwFfnCIfOTk4-" name="Page-1">
    <mxGraphModel dx="2954" dy="1116" grid="1" gridSize="10" guides="1" tooltips="1" connect="1" arrows="1" fold="1" page="1" pageScale="1" pageWidth="1169" pageHeight="827" math="0" shadow="0">
      <root>
        <mxCell id="0" />
        <mxCell id="1" parent="0" />
        <mxCell id="rxOCvepLr48hdXOrhoz--9" style="edgeStyle=orthogonalEdgeStyle;rounded=0;orthogonalLoop=1;jettySize=auto;html=1;fontSize=20;strokeWidth=4;shadow=1;" parent="1" source="rxOCvepLr48hdXOrhoz--1" edge="1">
          <mxGeometry relative="1" as="geometry">
            <mxPoint x="182.3499999999999" y="560" as="targetPoint" />
          </mxGeometry>
        </mxCell>
        <mxCell id="rxOCvepLr48hdXOrhoz--1" value="&lt;font style=&quot;font-size: 22px;&quot;&gt;Developer&lt;/font&gt;" style="verticalLabelPosition=bottom;sketch=0;aspect=fixed;html=1;verticalAlign=top;strokeColor=none;align=center;outlineConnect=0;shape=mxgraph.citrix.laptop_2;" parent="1" vertex="1">
          <mxGeometry x="101.89" y="660" width="160.92" height="120" as="geometry" />
        </mxCell>
        <mxCell id="rxOCvepLr48hdXOrhoz--8" style="edgeStyle=orthogonalEdgeStyle;rounded=0;orthogonalLoop=1;jettySize=auto;html=1;strokeWidth=4;shadow=1;" parent="1" source="rxOCvepLr48hdXOrhoz--2" edge="1">
          <mxGeometry relative="1" as="geometry">
            <mxPoint x="182.80999999999995" y="240" as="targetPoint" />
          </mxGeometry>
        </mxCell>
        <mxCell id="rxOCvepLr48hdXOrhoz--2" value="Github" style="dashed=0;outlineConnect=0;html=1;align=center;labelPosition=center;verticalLabelPosition=bottom;verticalAlign=top;shape=mxgraph.weblogos.github;fontSize=22;" parent="1" vertex="1">
          <mxGeometry x="102.81000000000002" y="360" width="160" height="160" as="geometry" />
        </mxCell>
        <mxCell id="rxOCvepLr48hdXOrhoz--10" style="edgeStyle=orthogonalEdgeStyle;rounded=0;orthogonalLoop=1;jettySize=auto;html=1;strokeWidth=4;shadow=1;" parent="1" source="rxOCvepLr48hdXOrhoz--3" edge="1">
          <mxGeometry relative="1" as="geometry">
            <mxPoint x="730" y="110.76999999999998" as="targetPoint" />
          </mxGeometry>
        </mxCell>
        <mxCell id="rxOCvepLr48hdXOrhoz--3" value="Jenkins" style="shape=image;verticalLabelPosition=bottom;labelBackgroundColor=default;verticalAlign=top;aspect=fixed;imageAspect=0;image=https://upload.wikimedia.org/wikipedia/commons/thumb/e/e9/Jenkins_logo.svg/1200px-Jenkins_logo.svg.png;fontSize=22;" parent="1" vertex="1">
          <mxGeometry x="131.19" y="20" width="131.62" height="181.54" as="geometry" />
        </mxCell>
        <mxCell id="rxOCvepLr48hdXOrhoz--35" style="edgeStyle=orthogonalEdgeStyle;rounded=0;orthogonalLoop=1;jettySize=auto;html=1;fontSize=17;strokeWidth=5;" parent="1" target="rxOCvepLr48hdXOrhoz--11" edge="1">
          <mxGeometry relative="1" as="geometry">
            <mxPoint x="920" y="90" as="sourcePoint" />
            <Array as="points">
              <mxPoint x="980" y="90" />
            </Array>
          </mxGeometry>
        </mxCell>
        <mxCell id="rxOCvepLr48hdXOrhoz--4" value="Workspace = Dev / Prod" style="shape=image;verticalLabelPosition=bottom;labelBackgroundColor=default;verticalAlign=top;aspect=fixed;imageAspect=0;image=https://assets-global.website-files.com/5f10ed4c0ebf7221fb5661a5/5f2f44a3fe54f0baba461524_terraform-logo.png;fontSize=16;fontStyle=1" parent="1" vertex="1">
          <mxGeometry x="750" y="10" width="162.33" height="160" as="geometry" />
        </mxCell>
        <mxCell id="rxOCvepLr48hdXOrhoz--11" value="AWS Cloud" style="points=[[0,0],[0.25,0],[0.5,0],[0.75,0],[1,0],[1,0.25],[1,0.5],[1,0.75],[1,1],[0.75,1],[0.5,1],[0.25,1],[0,1],[0,0.75],[0,0.5],[0,0.25]];outlineConnect=0;html=1;whiteSpace=wrap;fontSize=12;fontStyle=0;container=1;pointerEvents=0;collapsible=0;recursiveResize=0;shape=mxgraph.aws4.group;grIcon=mxgraph.aws4.group_aws_cloud_alt;strokeColor=#82b366;fillColor=#d5e8d4;verticalAlign=top;align=left;spacingLeft=30;dashed=0;" parent="1" vertex="1">
          <mxGeometry x="330" y="230" width="1160" height="605" as="geometry" />
        </mxCell>
        <mxCell id="rxOCvepLr48hdXOrhoz--13" value="Region Us-East-1" style="points=[[0,0],[0.25,0],[0.5,0],[0.75,0],[1,0],[1,0.25],[1,0.5],[1,0.75],[1,1],[0.75,1],[0.5,1],[0.25,1],[0,1],[0,0.75],[0,0.5],[0,0.25]];outlineConnect=0;gradientColor=none;html=1;whiteSpace=wrap;fontSize=12;fontStyle=0;container=1;pointerEvents=0;collapsible=0;recursiveResize=0;shape=mxgraph.aws4.group;grIcon=mxgraph.aws4.group_region;strokeColor=#147EBA;fillColor=none;verticalAlign=top;align=left;spacingLeft=30;fontColor=#147EBA;dashed=1;" parent="rxOCvepLr48hdXOrhoz--11" vertex="1">
          <mxGeometry x="20" y="55" width="270" height="525" as="geometry" />
        </mxCell>
        <mxCell id="rxOCvepLr48hdXOrhoz--16" value="&lt;b&gt;&lt;font style=&quot;font-size: 15px;&quot;&gt;Ec2&amp;nbsp;&amp;nbsp;&lt;/font&gt;&lt;/b&gt;" style="sketch=0;points=[[0,0,0],[0.25,0,0],[0.5,0,0],[0.75,0,0],[1,0,0],[0,1,0],[0.25,1,0],[0.5,1,0],[0.75,1,0],[1,1,0],[0,0.25,0],[0,0.5,0],[0,0.75,0],[1,0.25,0],[1,0.5,0],[1,0.75,0]];outlineConnect=0;fontColor=#232F3E;gradientColor=#F78E04;gradientDirection=north;fillColor=#D05C17;strokeColor=#ffffff;dashed=0;verticalLabelPosition=bottom;verticalAlign=top;align=center;html=1;fontSize=12;fontStyle=0;aspect=fixed;shape=mxgraph.aws4.resourceIcon;resIcon=mxgraph.aws4.ec2;" parent="rxOCvepLr48hdXOrhoz--13" vertex="1">
          <mxGeometry x="60" y="65" width="78" height="78" as="geometry" />
        </mxCell>
        <mxCell id="rxOCvepLr48hdXOrhoz--22" value="Role" style="sketch=0;outlineConnect=0;fontColor=#232F3E;gradientColor=none;fillColor=#BF0816;strokeColor=none;dashed=0;verticalLabelPosition=bottom;verticalAlign=top;align=center;html=1;fontSize=12;fontStyle=0;aspect=fixed;pointerEvents=1;shape=mxgraph.aws4.role;" parent="rxOCvepLr48hdXOrhoz--13" vertex="1">
          <mxGeometry x="180" y="345" width="78" height="44" as="geometry" />
        </mxCell>
        <mxCell id="rxOCvepLr48hdXOrhoz--21" value="Iam&lt;br&gt;" style="outlineConnect=0;dashed=0;verticalLabelPosition=bottom;verticalAlign=top;align=center;html=1;shape=mxgraph.aws3.iam;fillColor=#759C3E;gradientColor=none;" parent="rxOCvepLr48hdXOrhoz--13" vertex="1">
          <mxGeometry x="198" y="425" width="42" height="81" as="geometry" />
        </mxCell>
        <mxCell id="rxOCvepLr48hdXOrhoz--32" value="&lt;font style=&quot;font-size: 15px;&quot;&gt;&lt;b&gt;Alarm 1&lt;/b&gt;&lt;/font&gt;" style="sketch=0;points=[[0,0,0],[0.25,0,0],[0.5,0,0],[0.75,0,0],[1,0,0],[0,1,0],[0.25,1,0],[0.5,1,0],[0.75,1,0],[1,1,0],[0,0.25,0],[0,0.5,0],[0,0.75,0],[1,0.25,0],[1,0.5,0],[1,0.75,0]];points=[[0,0,0],[0.25,0,0],[0.5,0,0],[0.75,0,0],[1,0,0],[0,1,0],[0.25,1,0],[0.5,1,0],[0.75,1,0],[1,1,0],[0,0.25,0],[0,0.5,0],[0,0.75,0],[1,0.25,0],[1,0.5,0],[1,0.75,0]];outlineConnect=0;fontColor=#232F3E;gradientColor=#F34482;gradientDirection=north;fillColor=#BC1356;strokeColor=#ffffff;dashed=0;verticalLabelPosition=bottom;verticalAlign=top;align=center;html=1;fontSize=12;fontStyle=0;aspect=fixed;shape=mxgraph.aws4.resourceIcon;resIcon=mxgraph.aws4.cloudwatch_2;" parent="rxOCvepLr48hdXOrhoz--13" vertex="1">
          <mxGeometry x="60" y="185" width="78" height="78" as="geometry" />
        </mxCell>
        <mxCell id="rxOCvepLr48hdXOrhoz--33" value="&lt;b style=&quot;border-color: var(--border-color); font-size: 15px;&quot;&gt;Alarm 2&lt;/b&gt;" style="sketch=0;points=[[0,0,0],[0.25,0,0],[0.5,0,0],[0.75,0,0],[1,0,0],[0,1,0],[0.25,1,0],[0.5,1,0],[0.75,1,0],[1,1,0],[0,0.25,0],[0,0.5,0],[0,0.75,0],[1,0.25,0],[1,0.5,0],[1,0.75,0]];points=[[0,0,0],[0.25,0,0],[0.5,0,0],[0.75,0,0],[1,0,0],[0,1,0],[0.25,1,0],[0.5,1,0],[0.75,1,0],[1,1,0],[0,0.25,0],[0,0.5,0],[0,0.75,0],[1,0.25,0],[1,0.5,0],[1,0.75,0]];outlineConnect=0;fontColor=#232F3E;gradientColor=#F34482;gradientDirection=north;fillColor=#BC1356;strokeColor=#ffffff;dashed=0;verticalLabelPosition=bottom;verticalAlign=top;align=center;html=1;fontSize=12;fontStyle=0;aspect=fixed;shape=mxgraph.aws4.resourceIcon;resIcon=mxgraph.aws4.cloudwatch_2;" parent="rxOCvepLr48hdXOrhoz--13" vertex="1">
          <mxGeometry x="60" y="295" width="78" height="78" as="geometry" />
        </mxCell>
        <mxCell id="rxOCvepLr48hdXOrhoz--34" value="&lt;b style=&quot;border-color: var(--border-color); font-size: 15px;&quot;&gt;Alarm 3&lt;/b&gt;" style="sketch=0;points=[[0,0,0],[0.25,0,0],[0.5,0,0],[0.75,0,0],[1,0,0],[0,1,0],[0.25,1,0],[0.5,1,0],[0.75,1,0],[1,1,0],[0,0.25,0],[0,0.5,0],[0,0.75,0],[1,0.25,0],[1,0.5,0],[1,0.75,0]];points=[[0,0,0],[0.25,0,0],[0.5,0,0],[0.75,0,0],[1,0,0],[0,1,0],[0.25,1,0],[0.5,1,0],[0.75,1,0],[1,1,0],[0,0.25,0],[0,0.5,0],[0,0.75,0],[1,0.25,0],[1,0.5,0],[1,0.75,0]];outlineConnect=0;fontColor=#232F3E;gradientColor=#F34482;gradientDirection=north;fillColor=#BC1356;strokeColor=#ffffff;dashed=0;verticalLabelPosition=bottom;verticalAlign=top;align=center;html=1;fontSize=12;fontStyle=0;aspect=fixed;shape=mxgraph.aws4.resourceIcon;resIcon=mxgraph.aws4.cloudwatch_2;" parent="rxOCvepLr48hdXOrhoz--13" vertex="1">
          <mxGeometry x="60" y="415" width="78" height="78" as="geometry" />
        </mxCell>
        <mxCell id="rxOCvepLr48hdXOrhoz--46" value="SNS" style="sketch=0;points=[[0,0,0],[0.25,0,0],[0.5,0,0],[0.75,0,0],[1,0,0],[0,1,0],[0.25,1,0],[0.5,1,0],[0.75,1,0],[1,1,0],[0,0.25,0],[0,0.5,0],[0,0.75,0],[1,0.25,0],[1,0.5,0],[1,0.75,0]];outlineConnect=0;fontColor=#232F3E;gradientColor=#FF4F8B;gradientDirection=north;fillColor=#BC1356;strokeColor=#ffffff;dashed=0;verticalLabelPosition=bottom;verticalAlign=top;align=center;html=1;fontSize=12;fontStyle=0;aspect=fixed;shape=mxgraph.aws4.resourceIcon;resIcon=mxgraph.aws4.sns;" parent="rxOCvepLr48hdXOrhoz--13" vertex="1">
          <mxGeometry x="188.25" y="233.5" width="61.5" height="61.5" as="geometry" />
        </mxCell>
        <mxCell id="rxOCvepLr48hdXOrhoz--14" value="Region Us-West-1" style="points=[[0,0],[0.25,0],[0.5,0],[0.75,0],[1,0],[1,0.25],[1,0.5],[1,0.75],[1,1],[0.75,1],[0.5,1],[0.25,1],[0,1],[0,0.75],[0,0.5],[0,0.25]];outlineConnect=0;gradientColor=none;html=1;whiteSpace=wrap;fontSize=12;fontStyle=0;container=1;pointerEvents=0;collapsible=0;recursiveResize=0;shape=mxgraph.aws4.group;grIcon=mxgraph.aws4.group_region;strokeColor=#147EBA;fillColor=none;verticalAlign=top;align=left;spacingLeft=30;fontColor=#147EBA;dashed=1;" parent="rxOCvepLr48hdXOrhoz--11" vertex="1">
          <mxGeometry x="300" y="55" width="270" height="525" as="geometry" />
        </mxCell>
        <mxCell id="rxOCvepLr48hdXOrhoz--17" value="&lt;b style=&quot;border-color: var(--border-color);&quot;&gt;&lt;font style=&quot;border-color: var(--border-color); font-size: 15px;&quot;&gt;Ec2&amp;nbsp;&amp;nbsp;&lt;/font&gt;&lt;/b&gt;" style="sketch=0;points=[[0,0,0],[0.25,0,0],[0.5,0,0],[0.75,0,0],[1,0,0],[0,1,0],[0.25,1,0],[0.5,1,0],[0.75,1,0],[1,1,0],[0,0.25,0],[0,0.5,0],[0,0.75,0],[1,0.25,0],[1,0.5,0],[1,0.75,0]];outlineConnect=0;fontColor=#232F3E;gradientColor=#F78E04;gradientDirection=north;fillColor=#D05C17;strokeColor=#ffffff;dashed=0;verticalLabelPosition=bottom;verticalAlign=top;align=center;html=1;fontSize=12;fontStyle=0;aspect=fixed;shape=mxgraph.aws4.resourceIcon;resIcon=mxgraph.aws4.ec2;" parent="rxOCvepLr48hdXOrhoz--14" vertex="1">
          <mxGeometry x="60" y="65" width="78" height="78" as="geometry" />
        </mxCell>
        <mxCell id="rxOCvepLr48hdXOrhoz--26" value="Role" style="sketch=0;outlineConnect=0;fontColor=#232F3E;gradientColor=none;fillColor=#BF0816;strokeColor=none;dashed=0;verticalLabelPosition=bottom;verticalAlign=top;align=center;html=1;fontSize=12;fontStyle=0;aspect=fixed;pointerEvents=1;shape=mxgraph.aws4.role;" parent="rxOCvepLr48hdXOrhoz--14" vertex="1">
          <mxGeometry x="192" y="345" width="78" height="44" as="geometry" />
        </mxCell>
        <mxCell id="rxOCvepLr48hdXOrhoz--27" value="Iam&lt;br&gt;" style="outlineConnect=0;dashed=0;verticalLabelPosition=bottom;verticalAlign=top;align=center;html=1;shape=mxgraph.aws3.iam;fillColor=#759C3E;gradientColor=none;" parent="rxOCvepLr48hdXOrhoz--14" vertex="1">
          <mxGeometry x="210" y="425" width="42" height="81" as="geometry" />
        </mxCell>
        <mxCell id="rxOCvepLr48hdXOrhoz--37" value="&lt;font style=&quot;font-size: 15px;&quot;&gt;&lt;b&gt;Alarm 1&lt;/b&gt;&lt;/font&gt;" style="sketch=0;points=[[0,0,0],[0.25,0,0],[0.5,0,0],[0.75,0,0],[1,0,0],[0,1,0],[0.25,1,0],[0.5,1,0],[0.75,1,0],[1,1,0],[0,0.25,0],[0,0.5,0],[0,0.75,0],[1,0.25,0],[1,0.5,0],[1,0.75,0]];points=[[0,0,0],[0.25,0,0],[0.5,0,0],[0.75,0,0],[1,0,0],[0,1,0],[0.25,1,0],[0.5,1,0],[0.75,1,0],[1,1,0],[0,0.25,0],[0,0.5,0],[0,0.75,0],[1,0.25,0],[1,0.5,0],[1,0.75,0]];outlineConnect=0;fontColor=#232F3E;gradientColor=#F34482;gradientDirection=north;fillColor=#BC1356;strokeColor=#ffffff;dashed=0;verticalLabelPosition=bottom;verticalAlign=top;align=center;html=1;fontSize=12;fontStyle=0;aspect=fixed;shape=mxgraph.aws4.resourceIcon;resIcon=mxgraph.aws4.cloudwatch_2;" parent="rxOCvepLr48hdXOrhoz--14" vertex="1">
          <mxGeometry x="60" y="185" width="78" height="78" as="geometry" />
        </mxCell>
        <mxCell id="rxOCvepLr48hdXOrhoz--38" value="&lt;b style=&quot;border-color: var(--border-color); font-size: 15px;&quot;&gt;Alarm 2&lt;/b&gt;" style="sketch=0;points=[[0,0,0],[0.25,0,0],[0.5,0,0],[0.75,0,0],[1,0,0],[0,1,0],[0.25,1,0],[0.5,1,0],[0.75,1,0],[1,1,0],[0,0.25,0],[0,0.5,0],[0,0.75,0],[1,0.25,0],[1,0.5,0],[1,0.75,0]];points=[[0,0,0],[0.25,0,0],[0.5,0,0],[0.75,0,0],[1,0,0],[0,1,0],[0.25,1,0],[0.5,1,0],[0.75,1,0],[1,1,0],[0,0.25,0],[0,0.5,0],[0,0.75,0],[1,0.25,0],[1,0.5,0],[1,0.75,0]];outlineConnect=0;fontColor=#232F3E;gradientColor=#F34482;gradientDirection=north;fillColor=#BC1356;strokeColor=#ffffff;dashed=0;verticalLabelPosition=bottom;verticalAlign=top;align=center;html=1;fontSize=12;fontStyle=0;aspect=fixed;shape=mxgraph.aws4.resourceIcon;resIcon=mxgraph.aws4.cloudwatch_2;" parent="rxOCvepLr48hdXOrhoz--14" vertex="1">
          <mxGeometry x="60" y="295" width="78" height="78" as="geometry" />
        </mxCell>
        <mxCell id="rxOCvepLr48hdXOrhoz--39" value="&lt;b style=&quot;border-color: var(--border-color); font-size: 15px;&quot;&gt;Alarm 3&lt;/b&gt;" style="sketch=0;points=[[0,0,0],[0.25,0,0],[0.5,0,0],[0.75,0,0],[1,0,0],[0,1,0],[0.25,1,0],[0.5,1,0],[0.75,1,0],[1,1,0],[0,0.25,0],[0,0.5,0],[0,0.75,0],[1,0.25,0],[1,0.5,0],[1,0.75,0]];points=[[0,0,0],[0.25,0,0],[0.5,0,0],[0.75,0,0],[1,0,0],[0,1,0],[0.25,1,0],[0.5,1,0],[0.75,1,0],[1,1,0],[0,0.25,0],[0,0.5,0],[0,0.75,0],[1,0.25,0],[1,0.5,0],[1,0.75,0]];outlineConnect=0;fontColor=#232F3E;gradientColor=#F34482;gradientDirection=north;fillColor=#BC1356;strokeColor=#ffffff;dashed=0;verticalLabelPosition=bottom;verticalAlign=top;align=center;html=1;fontSize=12;fontStyle=0;aspect=fixed;shape=mxgraph.aws4.resourceIcon;resIcon=mxgraph.aws4.cloudwatch_2;" parent="rxOCvepLr48hdXOrhoz--14" vertex="1">
          <mxGeometry x="60" y="415" width="78" height="78" as="geometry" />
        </mxCell>
        <mxCell id="rxOCvepLr48hdXOrhoz--47" value="SNS" style="sketch=0;points=[[0,0,0],[0.25,0,0],[0.5,0,0],[0.75,0,0],[1,0,0],[0,1,0],[0.25,1,0],[0.5,1,0],[0.75,1,0],[1,1,0],[0,0.25,0],[0,0.5,0],[0,0.75,0],[1,0.25,0],[1,0.5,0],[1,0.75,0]];outlineConnect=0;fontColor=#232F3E;gradientColor=#FF4F8B;gradientDirection=north;fillColor=#BC1356;strokeColor=#ffffff;dashed=0;verticalLabelPosition=bottom;verticalAlign=top;align=center;html=1;fontSize=12;fontStyle=0;aspect=fixed;shape=mxgraph.aws4.resourceIcon;resIcon=mxgraph.aws4.sns;" parent="rxOCvepLr48hdXOrhoz--14" vertex="1">
          <mxGeometry x="200.25" y="231.75" width="61.5" height="61.5" as="geometry" />
        </mxCell>
        <mxCell id="rxOCvepLr48hdXOrhoz--15" value="Region Eu-Central-1" style="points=[[0,0],[0.25,0],[0.5,0],[0.75,0],[1,0],[1,0.25],[1,0.5],[1,0.75],[1,1],[0.75,1],[0.5,1],[0.25,1],[0,1],[0,0.75],[0,0.5],[0,0.25]];outlineConnect=0;gradientColor=none;html=1;whiteSpace=wrap;fontSize=12;fontStyle=0;container=1;pointerEvents=0;collapsible=0;recursiveResize=0;shape=mxgraph.aws4.group;grIcon=mxgraph.aws4.group_region;strokeColor=#147EBA;fillColor=none;verticalAlign=top;align=left;spacingLeft=30;fontColor=#147EBA;dashed=1;" parent="rxOCvepLr48hdXOrhoz--11" vertex="1">
          <mxGeometry x="580" y="55" width="270" height="525" as="geometry" />
        </mxCell>
        <mxCell id="rxOCvepLr48hdXOrhoz--18" value="&lt;b style=&quot;border-color: var(--border-color);&quot;&gt;&lt;font style=&quot;border-color: var(--border-color); font-size: 15px;&quot;&gt;Ec2&amp;nbsp;&amp;nbsp;&lt;/font&gt;&lt;/b&gt;" style="sketch=0;points=[[0,0,0],[0.25,0,0],[0.5,0,0],[0.75,0,0],[1,0,0],[0,1,0],[0.25,1,0],[0.5,1,0],[0.75,1,0],[1,1,0],[0,0.25,0],[0,0.5,0],[0,0.75,0],[1,0.25,0],[1,0.5,0],[1,0.75,0]];outlineConnect=0;fontColor=#232F3E;gradientColor=#F78E04;gradientDirection=north;fillColor=#D05C17;strokeColor=#ffffff;dashed=0;verticalLabelPosition=bottom;verticalAlign=top;align=center;html=1;fontSize=12;fontStyle=0;aspect=fixed;shape=mxgraph.aws4.resourceIcon;resIcon=mxgraph.aws4.ec2;" parent="rxOCvepLr48hdXOrhoz--15" vertex="1">
          <mxGeometry x="81" y="65" width="75" height="75" as="geometry" />
        </mxCell>
        <mxCell id="rxOCvepLr48hdXOrhoz--28" value="Role" style="sketch=0;outlineConnect=0;fontColor=#232F3E;gradientColor=none;fillColor=#BF0816;strokeColor=none;dashed=0;verticalLabelPosition=bottom;verticalAlign=top;align=center;html=1;fontSize=12;fontStyle=0;aspect=fixed;pointerEvents=1;shape=mxgraph.aws4.role;" parent="rxOCvepLr48hdXOrhoz--15" vertex="1">
          <mxGeometry x="192" y="345" width="78" height="44" as="geometry" />
        </mxCell>
        <mxCell id="rxOCvepLr48hdXOrhoz--29" value="Iam&lt;br&gt;" style="outlineConnect=0;dashed=0;verticalLabelPosition=bottom;verticalAlign=top;align=center;html=1;shape=mxgraph.aws3.iam;fillColor=#759C3E;gradientColor=none;" parent="rxOCvepLr48hdXOrhoz--15" vertex="1">
          <mxGeometry x="210" y="425" width="42" height="81" as="geometry" />
        </mxCell>
        <mxCell id="rxOCvepLr48hdXOrhoz--40" value="&lt;font style=&quot;font-size: 15px;&quot;&gt;&lt;b&gt;Alarm 1&lt;/b&gt;&lt;/font&gt;" style="sketch=0;points=[[0,0,0],[0.25,0,0],[0.5,0,0],[0.75,0,0],[1,0,0],[0,1,0],[0.25,1,0],[0.5,1,0],[0.75,1,0],[1,1,0],[0,0.25,0],[0,0.5,0],[0,0.75,0],[1,0.25,0],[1,0.5,0],[1,0.75,0]];points=[[0,0,0],[0.25,0,0],[0.5,0,0],[0.75,0,0],[1,0,0],[0,1,0],[0.25,1,0],[0.5,1,0],[0.75,1,0],[1,1,0],[0,0.25,0],[0,0.5,0],[0,0.75,0],[1,0.25,0],[1,0.5,0],[1,0.75,0]];outlineConnect=0;fontColor=#232F3E;gradientColor=#F34482;gradientDirection=north;fillColor=#BC1356;strokeColor=#ffffff;dashed=0;verticalLabelPosition=bottom;verticalAlign=top;align=center;html=1;fontSize=12;fontStyle=0;aspect=fixed;shape=mxgraph.aws4.resourceIcon;resIcon=mxgraph.aws4.cloudwatch_2;" parent="rxOCvepLr48hdXOrhoz--15" vertex="1">
          <mxGeometry x="81" y="185" width="78" height="78" as="geometry" />
        </mxCell>
        <mxCell id="rxOCvepLr48hdXOrhoz--41" value="&lt;b style=&quot;border-color: var(--border-color); font-size: 15px;&quot;&gt;Alarm 2&lt;/b&gt;" style="sketch=0;points=[[0,0,0],[0.25,0,0],[0.5,0,0],[0.75,0,0],[1,0,0],[0,1,0],[0.25,1,0],[0.5,1,0],[0.75,1,0],[1,1,0],[0,0.25,0],[0,0.5,0],[0,0.75,0],[1,0.25,0],[1,0.5,0],[1,0.75,0]];points=[[0,0,0],[0.25,0,0],[0.5,0,0],[0.75,0,0],[1,0,0],[0,1,0],[0.25,1,0],[0.5,1,0],[0.75,1,0],[1,1,0],[0,0.25,0],[0,0.5,0],[0,0.75,0],[1,0.25,0],[1,0.5,0],[1,0.75,0]];outlineConnect=0;fontColor=#232F3E;gradientColor=#F34482;gradientDirection=north;fillColor=#BC1356;strokeColor=#ffffff;dashed=0;verticalLabelPosition=bottom;verticalAlign=top;align=center;html=1;fontSize=12;fontStyle=0;aspect=fixed;shape=mxgraph.aws4.resourceIcon;resIcon=mxgraph.aws4.cloudwatch_2;" parent="rxOCvepLr48hdXOrhoz--15" vertex="1">
          <mxGeometry x="81" y="295" width="78" height="78" as="geometry" />
        </mxCell>
        <mxCell id="rxOCvepLr48hdXOrhoz--42" value="&lt;b style=&quot;border-color: var(--border-color); font-size: 15px;&quot;&gt;Alarm 3&lt;/b&gt;" style="sketch=0;points=[[0,0,0],[0.25,0,0],[0.5,0,0],[0.75,0,0],[1,0,0],[0,1,0],[0.25,1,0],[0.5,1,0],[0.75,1,0],[1,1,0],[0,0.25,0],[0,0.5,0],[0,0.75,0],[1,0.25,0],[1,0.5,0],[1,0.75,0]];points=[[0,0,0],[0.25,0,0],[0.5,0,0],[0.75,0,0],[1,0,0],[0,1,0],[0.25,1,0],[0.5,1,0],[0.75,1,0],[1,1,0],[0,0.25,0],[0,0.5,0],[0,0.75,0],[1,0.25,0],[1,0.5,0],[1,0.75,0]];outlineConnect=0;fontColor=#232F3E;gradientColor=#F34482;gradientDirection=north;fillColor=#BC1356;strokeColor=#ffffff;dashed=0;verticalLabelPosition=bottom;verticalAlign=top;align=center;html=1;fontSize=12;fontStyle=0;aspect=fixed;shape=mxgraph.aws4.resourceIcon;resIcon=mxgraph.aws4.cloudwatch_2;" parent="rxOCvepLr48hdXOrhoz--15" vertex="1">
          <mxGeometry x="81" y="415" width="78" height="78" as="geometry" />
        </mxCell>
        <mxCell id="rxOCvepLr48hdXOrhoz--48" value="SNS" style="sketch=0;points=[[0,0,0],[0.25,0,0],[0.5,0,0],[0.75,0,0],[1,0,0],[0,1,0],[0.25,1,0],[0.5,1,0],[0.75,1,0],[1,1,0],[0,0.25,0],[0,0.5,0],[0,0.75,0],[1,0.25,0],[1,0.5,0],[1,0.75,0]];outlineConnect=0;fontColor=#232F3E;gradientColor=#FF4F8B;gradientDirection=north;fillColor=#BC1356;strokeColor=#ffffff;dashed=0;verticalLabelPosition=bottom;verticalAlign=top;align=center;html=1;fontSize=12;fontStyle=0;aspect=fixed;shape=mxgraph.aws4.resourceIcon;resIcon=mxgraph.aws4.sns;" parent="rxOCvepLr48hdXOrhoz--15" vertex="1">
          <mxGeometry x="200.25" y="225" width="61.5" height="61.5" as="geometry" />
        </mxCell>
        <mxCell id="rxOCvepLr48hdXOrhoz--19" value="Region Us-East-2" style="points=[[0,0],[0.25,0],[0.5,0],[0.75,0],[1,0],[1,0.25],[1,0.5],[1,0.75],[1,1],[0.75,1],[0.5,1],[0.25,1],[0,1],[0,0.75],[0,0.5],[0,0.25]];outlineConnect=0;gradientColor=none;html=1;whiteSpace=wrap;fontSize=12;fontStyle=0;container=1;pointerEvents=0;collapsible=0;recursiveResize=0;shape=mxgraph.aws4.group;grIcon=mxgraph.aws4.group_region;strokeColor=#147EBA;fillColor=none;verticalAlign=top;align=left;spacingLeft=30;fontColor=#147EBA;dashed=1;" parent="rxOCvepLr48hdXOrhoz--11" vertex="1">
          <mxGeometry x="880" y="265" width="270" height="315" as="geometry" />
        </mxCell>
        <mxCell id="rxOCvepLr48hdXOrhoz--20" value="&lt;b&gt;&lt;font style=&quot;font-size: 15px;&quot;&gt;Ec2 -Jenkins-Server&lt;/font&gt;&lt;/b&gt;" style="sketch=0;points=[[0,0,0],[0.25,0,0],[0.5,0,0],[0.75,0,0],[1,0,0],[0,1,0],[0.25,1,0],[0.5,1,0],[0.75,1,0],[1,1,0],[0,0.25,0],[0,0.5,0],[0,0.75,0],[1,0.25,0],[1,0.5,0],[1,0.75,0]];outlineConnect=0;fontColor=#232F3E;gradientColor=#F78E04;gradientDirection=north;fillColor=#D05C17;strokeColor=#ffffff;dashed=0;verticalLabelPosition=bottom;verticalAlign=top;align=center;html=1;fontSize=12;fontStyle=0;aspect=fixed;shape=mxgraph.aws4.resourceIcon;resIcon=mxgraph.aws4.ec2;" parent="rxOCvepLr48hdXOrhoz--19" vertex="1">
          <mxGeometry x="81" y="65" width="78" height="78" as="geometry" />
        </mxCell>
        <mxCell id="rxOCvepLr48hdXOrhoz--30" value="Role" style="sketch=0;outlineConnect=0;fontColor=#232F3E;gradientColor=none;fillColor=#BF0816;strokeColor=none;dashed=0;verticalLabelPosition=bottom;verticalAlign=top;align=center;html=1;fontSize=12;fontStyle=0;aspect=fixed;pointerEvents=1;shape=mxgraph.aws4.role;" parent="rxOCvepLr48hdXOrhoz--19" vertex="1">
          <mxGeometry x="40" y="195" width="78" height="44" as="geometry" />
        </mxCell>
        <mxCell id="rxOCvepLr48hdXOrhoz--31" value="Iam&lt;br&gt;" style="outlineConnect=0;dashed=0;verticalLabelPosition=bottom;verticalAlign=top;align=center;html=1;shape=mxgraph.aws3.iam;fillColor=#759C3E;gradientColor=none;" parent="rxOCvepLr48hdXOrhoz--19" vertex="1">
          <mxGeometry x="159" y="176.5" width="42" height="81" as="geometry" />
        </mxCell>
        <mxCell id="rxOCvepLr48hdXOrhoz--50" style="edgeStyle=orthogonalEdgeStyle;rounded=0;orthogonalLoop=1;jettySize=auto;html=1;exitX=0.5;exitY=1;exitDx=0;exitDy=0;" parent="rxOCvepLr48hdXOrhoz--11" source="rxOCvepLr48hdXOrhoz--19" target="rxOCvepLr48hdXOrhoz--19" edge="1">
          <mxGeometry relative="1" as="geometry" />
        </mxCell>
        <mxCell id="rxOCvepLr48hdXOrhoz--51" value="&lt;font style=&quot;font-size: 17px;&quot;&gt;&lt;b&gt;S3 Backend&lt;/b&gt;&lt;/font&gt;" style="sketch=0;pointerEvents=1;shadow=0;dashed=0;html=1;strokeColor=none;fillColor=#DF8C42;labelPosition=center;verticalLabelPosition=bottom;verticalAlign=top;align=center;outlineConnect=0;shape=mxgraph.veeam2.aws_s3;strokeWidth=6;" parent="rxOCvepLr48hdXOrhoz--11" vertex="1">
          <mxGeometry x="960" y="70" width="90" height="90" as="geometry" />
        </mxCell>
      </root>
    </mxGraphModel>
  </diagram>
</mxfile>
